<svg width="21" height="19" xmlns="http://www.w3.org/2000/svg" xmlns:xlink="http://www.w3.org/1999/xlink" xml:space="preserve" overflow="hidden"><g transform="translate(-312 -120)"><path d="M2.27997 6.95359C2.00552 6.33891 1.85294 5.65786 1.85294 4.94118 1.85294 2.21224 4.06518 0 6.79412 0 9.52307 0 11.7353 2.21224 11.7353 4.94118 14.4642 4.94118 16.6765 7.1534 16.6765 9.88235 16.6765 12.6113 14.4642 14.8235 11.7353 14.8235 10.7111 14.8235 9.75956 14.5119 8.97058 13.9783 8.07499 15.2374 6.60401 16.0588 4.94118 16.0588 2.21224 16.0588 0 13.8466 0 11.1176 0 9.36853 0.908806 7.8317 2.27997 6.95359Z" stroke="#262626" fill="#F9F8F6" fill-rule="evenodd" transform="matrix(1 0 0 1.0254 313.235 121.267)"/><path d="M8.14849 6.53786 19.0975 3.04362" stroke="#262626" fill="none" fill-rule="evenodd" transform="matrix(1 0 0 1.0254 313.235 121.267)"/><path d="M11.1277 10.892 19.1371 6.40216" stroke="#262626" fill="none" fill-rule="evenodd" transform="matrix(1 0 0 1.0254 313.235 121.267)"/></g></svg>