<svg width="114" height="279" xmlns="http://www.w3.org/2000/svg" xmlns:xlink="http://www.w3.org/1999/xlink" xml:space="preserve" overflow="hidden"><defs><radialGradient cx="149632" cy="148246" r="210631" fy="148246" gradientUnits="userSpaceOnUse" spreadMethod="pad" id="fill0" gradientTransform="matrix(0.000360892 0 0 0.000360892 138.5 223.5)"><stop offset="0" stop-color="#C40000"/><stop offset="0.0119048" stop-color="#C30000"/><stop offset="0.0238095" stop-color="#C30001"/><stop offset="0.0357143" stop-color="#C30002"/><stop offset="0.047619" stop-color="#C30002"/><stop offset="0.0595238" stop-color="#C30003"/><stop offset="0.0714286" stop-color="#C30004"/><stop offset="0.0833333" stop-color="#C30105"/><stop offset="0.0952381" stop-color="#C20105"/><stop offset="0.107143" stop-color="#C20106"/><stop offset="0.119048" stop-color="#C20107"/><stop offset="0.130952" stop-color="#C20107"/><stop offset="0.142857" stop-color="#C10108"/><stop offset="0.154762" stop-color="#C10109"/><stop offset="0.166667" stop-color="#C10209"/><stop offset="0.178571" stop-color="#C0020A"/><stop offset="0.190476" stop-color="#C0020B"/><stop offset="0.202381" stop-color="#BF020B"/><stop offset="0.214286" stop-color="#BF020C"/><stop offset="0.22619" stop-color="#BE020C"/><stop offset="0.238095" stop-color="#BE020D"/><stop offset="0.25" stop-color="#BD020E"/><stop offset="0.261905" stop-color="#BD030E"/><stop offset="0.27381" stop-color="#BC030F"/><stop offset="0.285714" stop-color="#BB030F"/><stop offset="0.297619" stop-color="#BB0310"/><stop offset="0.309524" stop-color="#BA0311"/><stop offset="0.321429" stop-color="#B90311"/><stop offset="0.333333" stop-color="#B90312"/><stop offset="0.345238" stop-color="#B80312"/><stop offset="0.357143" stop-color="#B70313"/><stop offset="0.369048" stop-color="#B60413"/><stop offset="0.380952" stop-color="#B60414"/><stop offset="0.392857" stop-color="#B50414"/><stop offset="0.404762" stop-color="#B40415"/><stop offset="0.416667" stop-color="#B30415"/><stop offset="0.428571" stop-color="#B20416"/><stop offset="0.440476" stop-color="#B10416"/><stop offset="0.452381" stop-color="#B00417"/><stop offset="0.464286" stop-color="#AF0417"/><stop offset="0.47619" stop-color="#AE0417"/><stop offset="0.488095" stop-color="#AD0518"/><stop offset="0.5" stop-color="#AC0518"/><stop offset="0.511905" stop-color="#AB0519"/><stop offset="0.52381" stop-color="#AA0519"/><stop offset="0.535714" stop-color="#A90519"/><stop offset="0.547619" stop-color="#A8051A"/><stop offset="0.559524" stop-color="#A7051A"/><stop offset="0.571429" stop-color="#A6051B"/><stop offset="0.583333" stop-color="#A5051B"/><stop offset="0.595238" stop-color="#A3051B"/><stop offset="0.607143" stop-color="#A2051C"/><stop offset="0.619048" stop-color="#A1051C"/><stop offset="0.630952" stop-color="#A0051C"/><stop offset="0.642857" stop-color="#9E051D"/><stop offset="0.654762" stop-color="#9D061D"/><stop offset="0.666667" stop-color="#9C061D"/><stop offset="0.678571" stop-color="#9A061D"/><stop offset="0.690476" stop-color="#99061E"/><stop offset="0.702381" stop-color="#98061E"/><stop offset="0.714286" stop-color="#96061E"/><stop offset="0.72619" stop-color="#95061F"/><stop offset="0.738095" stop-color="#93061F"/><stop offset="0.75" stop-color="#92061F"/><stop offset="0.761905" stop-color="#90061F"/><stop offset="0.77381" stop-color="#8F061F"/><stop offset="0.785714" stop-color="#8D0620"/><stop offset="0.797619" stop-color="#8C0620"/><stop offset="0.809524" stop-color="#8A0620"/><stop offset="0.821429" stop-color="#890620"/><stop offset="0.833333" stop-color="#870620"/><stop offset="0.845238" stop-color="#850620"/><stop offset="0.857143" stop-color="#840621"/><stop offset="0.869048" stop-color="#820621"/><stop offset="0.880952" stop-color="#800621"/><stop offset="0.892857" stop-color="#7F0621"/><stop offset="0.904762" stop-color="#7D0621"/><stop offset="0.916667" stop-color="#7B0621"/><stop offset="0.928571" stop-color="#7A0621"/><stop offset="0.940476" stop-color="#780621"/><stop offset="0.952381" stop-color="#760621"/><stop offset="0.964286" stop-color="#740621"/><stop offset="0.97619" stop-color="#720621"/><stop offset="0.988095" stop-color="#700621"/><stop offset="1" stop-color="#6F0722"/></radialGradient></defs><g transform="translate(-136 -221)"><path d="M170.135 330.501 138.501 299.161 138.501 254.844 170.135 223.501 214.871 223.501 246.501 254.844 246.501 299.161 214.871 330.501 170.135 330.501Z" fill="url(#fill0)" fill-rule="evenodd"/><path d="M170.135 332.793C169.531 332.793 168.951 332.554 168.522 332.129L136.888 300.789C136.453 300.358 136.209 299.772 136.209 299.161L136.209 254.844C136.209 254.233 136.453 253.647 136.888 253.216L168.522 221.873C168.951 221.448 169.531 221.209 170.135 221.209L214.871 221.209C215.475 221.209 216.054 221.448 216.484 221.873L248.114 253.216C248.548 253.647 248.793 254.233 248.793 254.844L248.793 299.161C248.793 299.772 248.548 300.358 248.114 300.789L216.483 332.129C216.054 332.554 215.475 332.793 214.871 332.793ZM214.682 330.043 246.043 298.97 246.043 255.035 214.682 223.959 170.324 223.959 138.959 255.035 138.959 298.97 170.324 330.043ZM170.701 329.126 139.876 298.587 139.876 255.417 170.701 224.876 214.305 224.876 245.126 255.417 245.126 298.587 214.305 329.126ZM213.927 328.209 244.209 298.205 244.209 255.799 213.927 225.792 171.078 225.792 140.792 255.799 140.792 298.205 171.078 328.209Z" fill="#767171"/><path d="M192.506 332.5 192.506 495.501" stroke="#767171" stroke-width="4.58333" stroke-linecap="square" stroke-linejoin="round" stroke-miterlimit="10" fill="none" fill-rule="evenodd"/><path d="M232.111 282.12 231.196 283.059C231.937 283.636 232.677 284.205 233.392 284.79 233.751 285.149 234.135 285.482 234.541 285.787 235.589 286.405 235.481 287.336 235.372 288.259 235.372 288.424 235.314 288.589 235.298 288.753 235.319 289.144 235.018 289.479 234.623 289.5 234.477 289.509 234.332 289.472 234.208 289.396 233.996 289.312 233.806 289.183 233.65 289.017 232.413 287.709 231.454 286.168 230.83 284.485 230.778 284.158 230.759 283.827 230.772 283.496L228.8 285.721C227.536 287.122 226.304 288.523 224.998 289.915 224.82 290.134 224.588 290.304 224.324 290.41 223.892 290.542 223.492 290.624 223.301 289.957 222.694 288.111 222.877 287.485 224.283 286.1 226.255 284.18 228.151 282.178 230.106 280.208 229.99 280.11 229.973 280.085 229.948 280.077 229.424 279.895 228.725 280.439 228.334 279.706 227.744 278.86 227.531 277.811 227.744 276.805 227.851 276.515 227.851 276.197 227.744 275.907 227.186 277.555 226.246 279.03 226.421 280.851 226.49 281.306 226.363 281.77 226.072 282.128 225.529 282.469 224.831 282.443 224.316 282.062 222.536 281.09 222.519 279.442 222.502 277.769 222.462 275.319 222.923 272.886 223.858 270.617 224.356 269.462 224.966 268.358 225.68 267.321 226.159 266.732 226.206 265.907 225.797 265.269 225.399 264.481 225.089 263.652 224.873 262.797 224.692 261.753 224.573 260.699 224.516 259.641 225.614 259.213 226.329 259.839 226.953 260.465 227.736 261.305 228.921 261.654 230.04 261.371 230.859 261.132 231.741 261.417 232.261 262.088 232.429 262.329 232.48 262.631 232.402 262.912 231.704 264.173 230.938 265.385 230.181 266.645 230.859 266.911 231.513 267.234 232.136 267.609 234.183 269.093 234.965 271.301 235.239 273.641 235.629 276.91 235.581 280.215 235.098 283.471 234.995 283.883 234.754 284.249 234.416 284.51 233.983 284.889 233.584 284.642 233.359 284.197 232.968 283.505 232.56 282.854 232.111 282.12ZM228.942 272.471C229.774 271.919 229.774 271.919 230.905 272.076L231.154 272.076C231.803 272.133 233.001 273.641 232.818 274.251 232.818 274.424 232.536 274.548 232.402 274.712L230.738 276.616 233.193 278.058C233.193 276.344 233.251 274.646 233.193 272.949 233.124 272.169 232.934 271.404 232.627 270.683 232.144 269.48 231.396 269.34 230.531 270.296 229.958 270.989 229.427 271.715 228.942 272.471Z" stroke="#FFFFFF" stroke-width="1.14583" stroke-miterlimit="8" fill="#FFFFFF" fill-rule="evenodd"/><path d="M158.538 274.891C159.093 275.359 159.612 275.784 160.098 276.227 160.21 276.327 160.323 276.586 160.262 276.686 159.812 277.445 159.829 278.497 158.781 278.923 158.296 279.114 157.915 279.448 157.404 279.682 156.217 280.266 156.139 280.4 156.416 281.819 157.429 281.435 158.417 280.984 159.43 280.667 160.51 280.246 161.722 280.279 162.774 280.759 163.359 280.976 163.649 281.61 163.423 282.173 163.333 282.397 163.169 282.586 162.956 282.712 162.35 283.006 161.721 283.257 161.076 283.463 160.332 283.788 159.595 284.131 158.85 284.473 158.694 284.548 158.582 284.731 158.417 284.756 156.312 285.207 156.477 286.801 156.52 288.279 156.52 288.454 156.52 288.621 156.52 288.788 156.52 289.906 156.52 289.906 155.705 291.5 155.185 291.314 154.676 291.099 154.181 290.858 153.315 290.399 153.315 289.589 153.194 288.754 153.043 288.133 152.804 287.535 152.483 286.977 151.461 287.027 150.473 287.544 149.477 286.835 148.556 286.157 148.243 284.955 148.724 283.939 149.594 282.41 150.829 281.102 152.327 280.124 152.962 279.733 153.354 279.064 153.376 278.338 153.566 275 153.878 271.728 154.138 268.406L153.272 268.924C152.059 268.181 152.518 266.962 152.319 265.936 152.267 265.694 152.683 265.301 152.968 265.101 153.532 264.651 154.181 264.267 154.701 263.849 154.991 263.573 155.201 263.227 155.307 262.848 155.704 262.438 156.36 262.383 156.823 262.723 157.611 263.098 158.469 263.324 159.24 263.716 160.306 264.187 161.128 265.054 161.518 266.119 161.666 266.612 161.232 267.271 161.042 267.956 160.392 267.664 159.95 267.43 159.483 267.255 158.456 266.946 157.338 267.146 156.494 267.789 156.39 267.847 156.315 267.943 156.286 268.056 156.113 269.057 155.948 270.059 155.758 271.219 156.867 270.593 157.854 270.017 158.859 269.491 159.621 269.091 160.21 268.289 161.215 268.44 161.496 268.476 161.751 268.617 161.925 268.832 162.376 269.617 162.341 269.666 162.107 269.984ZM150.248 284.406C152.509 284.514 153.523 283.404 152.934 281.502Z" stroke="#FFFFFF" stroke-width="1.14583" stroke-miterlimit="8" fill="#FFFFFF" fill-rule="evenodd"/><path d="M213.009 267.883C214.347 269.309 214.446 271.317 215.288 272.801 216.494 273.555 215.677 274.859 216.271 275.703L216.494 275.137C216.548 277.512 216.25 279.882 215.611 282.171 215.086 284.036 213.866 285.632 212.2 286.639 210.469 287.873 208.385 288.525 206.253 288.499 201.967 288.442 198.465 285.696 197.408 281.162 197.348 280.978 197.303 280.789 197.276 280.597 197.177 279.777 196.946 279.269 195.93 279.187 195.071 279.115 194.433 278.366 194.506 277.513 194.519 277.356 194.557 277.201 194.617 277.055 195.016 275.93 195.496 274.834 196.054 273.776 196.186 273.533 196.338 273.299 196.508 273.08 196.032 272.778 195.572 272.452 195.129 272.104 194.988 271.981 194.873 271.58 194.955 271.49 195.134 271.277 195.395 271.149 195.674 271.137 196.73 271.388 197.79 270.741 198.043 269.693 198.049 269.667 198.055 269.64 198.061 269.612 198.452 267.717 199.182 265.907 200.216 264.267 200.439 263.907 200.976 263.448 201.306 263.505 201.984 263.603 201.959 264.267 201.942 264.858 201.835 267.456 201.76 270.047 201.678 272.645 201.678 272.891 201.678 273.137 201.678 273.465L203.33 272.981C203.173 273.416 203.09 273.629 203.008 273.801 202.62 274.834 202.273 275.9 201.802 276.9 201.67 277.187 201.174 277.343 200.827 277.498 200.472 277.594 200.122 277.709 199.779 277.843 199.467 278.034 199.2 278.288 198.994 278.589 198.774 278.849 198.649 279.175 198.639 279.515 199.052 283.089 203.107 285.876 206.641 285.122 208.945 284.739 210.806 283.046 211.39 280.802 212.287 277.807 212.726 274.695 212.695 271.572 212.695 270.383 212.695 269.186 212.695 267.989ZM201.182 270.424C200.249 271.309 199.027 271.957 198.705 272.883 198.209 274.268 198.358 275.875 198.242 277.383 199.556 276.752 200.381 275.973 200.505 274.588 200.629 273.203 200.935 271.883 201.182 270.416ZM201.29 269.194 201.1 265.669 200.761 265.587 199.192 269.465 199.407 269.604C199.674 269.481 199.95 269.377 200.233 269.292 200.583 269.236 200.936 269.2 201.29 269.186ZM196.863 275.49C196.037 277.047 196.037 277.637 196.863 278.064Z" stroke="#FFFFFF" stroke-width="1.14583" stroke-miterlimit="8" fill="#FFFFFF" fill-rule="evenodd"/><path d="M181.5 288.146 179.254 289.144C178.934 289.23 178.631 289.367 178.356 289.549 177.025 290.77 175.519 290.663 174.013 290.077 171.942 289.252 169.912 288.361 167.882 287.461 167.377 287.169 166.766 287.117 166.218 287.321 165.328 287.654 164.416 287.929 163.49 288.146 163.161 288.184 162.829 288.184 162.5 288.146 163.082 287.477 163.557 286.891 164.081 286.347 164.447 285.967 164.48 285.744 164.081 285.307 163.398 284.782 163.006 283.968 163.024 283.112 164.031 283.442 164.954 283.739 165.869 284.069 166.223 284.255 166.66 284.165 166.909 283.855 168.444 282.364 169.739 280.649 170.752 278.771 170.83 278.623 170.899 278.472 170.96 278.317 171.011 278.165 170.99 277.997 170.902 277.863 169.746 278.878 168.598 279.901 167.425 280.892 167.062 281.173 166.678 281.427 166.277 281.651 165.886 281.139 165.554 280.586 165.287 280 164.971 278.952 165.245 278.663 166.319 278.292 166.757 278.134 167.151 277.874 167.466 277.533 168.839 276.006 170.162 274.463 171.518 272.994 169.854 270.955 170.103 268.702 170.752 266.391L170.561 266.292C170.27 266.573 169.97 266.837 169.729 267.118 168.897 268.067 168.065 269.016 167.234 269.998 167.042 270.269 166.938 270.591 166.934 270.922 166.934 271.962 167.001 273.002 166.934 274.033 166.859 274.598 166.716 275.152 166.51 275.684 166.41 276.047 166.293 276.394 166.202 276.674 165.975 276.66 165.75 276.627 165.528 276.575 165.337 276.518 165.045 276.435 165.012 276.303 164.779 275.478 164.588 274.586 164.413 273.72 164.339 273.39 164.463 272.894 164.28 272.738 163.615 272.078 163.973 271.459 164.28 270.914 164.555 270.483 164.535 269.929 164.23 269.519 163.991 269.139 163.814 268.724 163.706 268.289 163.706 268.042 163.947 267.736 164.081 267.464 164.297 267.621 164.513 267.761 164.713 267.935 165.037 268.207 165.337 268.487 165.703 268.818 166.535 268.092 167.283 267.365 168.074 266.655 168.695 266.04 169.359 265.469 170.062 264.947 170.526 264.638 171.076 264.483 171.634 264.501 172.715 264.592 173.04 265.219 172.732 266.292 172.456 267.09 172.229 267.903 172.05 268.727 172.045 269.198 172.12 269.667 172.275 270.113 172.731 270.018 173.177 269.877 173.606 269.693 174.059 269.401 174.495 269.084 174.911 268.743 175.918 268.193 177.182 268.557 177.737 269.555 177.762 269.6 177.785 269.646 177.807 269.693 177.89 269.957 177.565 270.402 177.324 270.666 177.073 270.895 176.761 271.047 176.425 271.104 174.363 271.5 173.04 272.986 171.593 274.297 171.518 274.355 171.501 274.479 171.409 274.685 171.859 274.451 172.333 274.269 172.823 274.141 173.253 274.117 173.681 274.217 174.055 274.43 174.154 274.488 174.055 275.048 173.938 275.354 173.566 276.764 173.085 278.144 172.499 279.48 171.584 281.246 170.411 282.897 169.355 284.614 169.263 284.754 169.164 284.886 168.955 285.2 173.115 286.239 177.133 287.626 181.433 287.857Z" stroke="#FFFFFF" stroke-width="1.14583" stroke-miterlimit="8" fill="#FFFFFF" fill-rule="evenodd"/><path d="M191.991 276.314C192.374 276.385 192.744 276.519 193.089 276.711 193.348 276.95 193.528 277.272 193.603 277.63 193.603 277.779 193.342 278.093 193.135 278.201 191.645 278.962 190.117 279.64 188.98 281.014 187.844 282.387 187.852 283.596 189.249 285.225 189.372 284.952 189.472 284.688 189.595 284.439 190.005 283.696 190.736 283.225 191.538 283.19 192.371 283.212 193.087 282.557 193.204 281.668 193.88 282.214 194.54 282.702 195.147 283.273 195.371 283.514 195.498 283.841 195.5 284.183 195.5 284.324 195.063 284.464 194.825 284.597 194.587 284.729 194.364 284.746 194.233 284.911 193.798 285.696 192.855 285.952 192.127 285.484 192.083 285.455 192.04 285.424 191.998 285.391 191.653 285.184 191.322 284.961 190.877 284.671 190.67 285.267 190.478 285.805 190.301 286.326 189.894 287.584 189.057 287.865 188.09 287.004 186.81 285.899 186.237 284.098 186.615 282.379 186.882 281.158 187.513 280.065 188.412 279.268 188.798 278.971 188.965 278.441 188.827 277.952 188.793 277.51 188.864 277.066 189.034 276.662 189.184 276.273 189.356 275.894 189.549 275.528 188.608 275.386 187.952 274.449 188.084 273.436 188.121 273.153 188.217 272.884 188.366 272.649 189.019 271.524 189.748 270.464 190.409 269.339 190.724 268.81 191.008 268.23 190.409 267.626 191.399 267.146 191.852 268.172 192.774 268.388L190.816 272.525C191.3 272.996 191.899 273.476 192.398 274.055 193.096 274.883 192.728 275.594 191.991 276.314Z" stroke="#FFFFFF" stroke-width="1.14583" stroke-miterlimit="8" fill="#FFFFFF" fill-rule="evenodd"/></g></svg>